/* XPM */
static char *ad2018d69db34cc19f4ed50de30b3023dPV7M0zzKjfqxkTT[] = {
/* columns rows colors chars-per-pixel */
"50 50 150 2 ",
"   c None",
".  c #434546",
"X  c #4F5152",
"o  c #505255",
"O  c #575857",
"+  c #585A56",
"@  c #595A5B",
"#  c #5F6162",
"$  c #656666",
"%  c #656769",
"&  c #6B6C6D",
"*  c #6A6E71",
"=  c #727475",
"-  c #767779",
";  c #77797B",
":  c #7A7C7D",
">  c #7D7E80",
",  c #7F8081",
"<  c #838485",
"1  c #858689",
"2  c #878889",
"3  c #8B8C8D",
"4  c #91908D",
"5  c #8D8F91",
"6  c #8F9192",
"7  c #929395",
"8  c #959698",
"9  c #97989A",
"0  c #9A9B9D",
"q  c #A1A09E",
"w  c #9C9EA1",
"e  c #9FA0A2",
"r  c #A3A4A5",
"t  c #AAA8A7",
"y  c #A5A6A8",
"u  c #A7A8AA",
"i  c #AAABAD",
"p  c #ADAEB0",
"a  c #AFB0B2",
"s  c #B2B4B5",
"d  c #B5B6B9",
"f  c #B7B8BA",
"g  c #BABBBD",
"h  c #BDBEC0",
"j  c #BFC0C2",
"k  c #C2C3C5",
"l  c #C6C7C9",
"z  c #C7C8CA",
"x  c #CACBCD",
"c  c #CDCED0",
"v  c #CECFD0",
"b  c #CECFD1",
"n  c #CCCED2",
"m  c #CDCFD1",
"M  c #CFD0D1",
"N  c #CED0D2",
"B  c #CFD1D2",
"V  c #CFD0D3",
"C  c #CFD1D4",
"Z  c #CFD0D2",
"A  c #D0D1D3",
"S  c #D1D2D3",
"D  c #D2D3D3",
"F  c #D0D1D4",
"G  c #D0D1D5",
"H  c #D1D2D4",
"J  c #D1D3D5",
"K  c #D0D2D4",
"L  c #D2D3D4",
"P  c #D2D3D5",
"I  c #D3D3D6",
"U  c #D3D4D5",
"Y  c #D2D4D6",
"T  c #D3D4D6",
"R  c #D4D5D5",
"E  c #D4D5D6",
"W  c #D4D5D7",
"Q  c #D4D6D7",
"!  c #D6D6D7",
"~  c #D2D3D5",
"^  c #D3D5D8",
"/  c #D4D6D8",
"(  c #D5D6D8",
")  c #D5D7D8",
"_  c #D5D6D9",
"`  c #D5D7D9",
"'  c #D7D7D8",
"]  c #D6D7D9",
"[  c #D5D7D8",
"{  c #D7D8D9",
"}  c #D6D8DA",
"|  c #D7D8DA",
" . c #D7D9DA",
".. c #D7D9DB",
"X. c #D7D8DA",
"o. c #D8D9DA",
"O. c #D9D9DA",
"+. c #D8D9DB",
"@. c #D8DADB",
"#. c #D8D9DC",
"$. c #D8DADC",
"%. c #D9DADC",
"&. c #DADBDC",
"*. c #DADBDD",
"=. c #DADBDE",
"-. c #DBDBDF",
";. c #DADCDE",
":. c #DBDDDE",
">. c #DBDCDF",
",. c #DCDCDD",
"<. c #DDDDDE",
"1. c #DCDDDF",
"2. c #D9DADC",
"3. c #DDDEE0",
"4. c #DDDFE1",
"5. c #DEDFE1",
"6. c #DEDFE3",
"7. c #DDDFE2",
"8. c #DFE0E1",
"9. c #DFE0E1",
"0. c #E0E1E2",
"q. c #E0E1E3",
"w. c #E0E2E3",
"e. c #E1E1E4",
"r. c #E2E3E5",
"t. c #E1E3E7",
"y. c #E3E4E4",
"u. c #E3E4E5",
"i. c #E3E5E6",
"p. c #E4E5E6",
"a. c #E5E6E7",
"s. c #E6E7E7",
"d. c #E3E4E5",
"f. c #E6E7E8",
"g. c #E7E7E8",
"h. c #E5E7EA",
"j. c #E4E6EB",
"k. c #E6E7E9",
"l. c #E7E8EA",
"z. c #E7E8E9",
"x. c #E8E9E9",
"c. c #E9EAEB",
"v. c #EBECED",
"b. c #ECEEF1",
"n. c #EEEFF1",
"m. c #F0F1F2",
"M. c #F1F1F3",
"N. c #F3F3F5",
"B. c #F7F7F9",
"V. c #FAFAFB",
/* pixels */
"                                        M.g.I C L L ^ %.t.b.                                        ",
"                                  %.k s s p i y r r y i y u d z 6.                                  ",
"                            9.l h r y g l x z z l k x x l h f r r s c g.                            ",
"                        r.h i r f l x k g f g k k l g s g f h k k f 9 t f r.                        ",
"                      j r w l z h h k b ) g.9.%.q.6.d.M.r.L l g g d k g 8 w n                       ",
"                  ) a 5 h x d k b I ) ) l.z <.O.L <.d.g g.6.C ) S x d s k g 5 h 3.                  ",
"                V r 8 b g d L g.g.p.V ) ) i k +.) b f I 3.L b L q.c.q.x d d z 4 r G                 ",
"              x 9 y C s z I g.L g 6.x ) k b z j L b +.) d z ) ) M p 9.,.O.l i l r w n               ",
"            z 8 s x d S 3.L L f <.k k S s v V a b { b g b L x f k g O.o.I <.L i z i w z             ",
"          z 9 i z p ! { I ) n b T f :.! i s a i ) g p l L b p k +.z x +.%.o.%.+.s k r w x           ",
"          0 0 x s ) ! ) ^ L L 3.z z k z T p a V b x k f g b y g z i x +.o.%.) %.' p x q w           ",
"        y 8 x s V T ) { I ) ) L d s j D ! ) { D n b L ) L b x r y l ) L ) #.) ) ' I s l 3 e         ",
"      f 9 k d x ) T L T ) ) o.L v T ) R T V x x x N x n b b L ^ I ! L I L ) ^ ^ S ) z f j 2 a       ",
"      0 y h g %.T ! T { ) ) ) ) ! T S D V D S V x x V V b b L C A A S L I I I L S L ) s h t 7       ",
"    s 9 k s S ) T ! ) o.) +.g.9.T T ! { c.B.N.r.z x b x n V n b 9.v.M.d.L L L b b b A ! d k 0 r     ",
"    r i g j { L T o.! T d.N.B.I V T { N.B.l.l.V.l.x x x x n x v.V.b.N.V.v.L L b b L I o.z j p 7     ",
"    r j f L L L ) ) <.m.N.g.#.h c n c.v.l 7 5 z m.) k x x z 9.v.I 9 w ) N.g.b L L I ^ ) o.k j 9     ",
"  i p g g o.S L I L b ^ x L b f k Q a.v 0 j h w ) <.l x z V l.{ r p i r #.r.I b I I I ) ' j j t w   ",
"  y f h x L S L b T i 6 s L b f k T T g u v l u k { k z z ! :.k e l k w j %.L b L ) I L ) M h f 8   ",
"  i s f b I I b x x x z j C z s l x v p f v z s g B h j l V T a u k l i d 3.c x L ^ I ^ R ' h g 9   ",
"g s j k ) I L n S b S x j L l f j k z a l v x f g M j g j z T i s k c g p +.x j ) L T T T { l k y e ",
"s p h k #.^ I L S S C b k C z f g z v g V D c g g M h d f z z y f l c j a ) z f C b V S b ^ k g i 7 ",
"i f h l ) ) ^ L L L ! b l { z s s z D g B Q x h g M g d s l z t j z b l s L k s b n C V V V x k s 0 ",
"8 s g x ) L L L C L ) b k { l a a j z a z z k f g x s d s h l a z x L c h I z s b b C V V T x g f q ",
"3 f g x ) L L ^ V B { x j T j p t g l p h l j s g x i d p f z a c b ) b l o.g i C b b x x I A k s 8 ",
"3 g l b T L L b x N V j j x g i e s k p s j g a g h e f p p l s n x C n b T s p L b x l x A A j s 9 ",
"1 g h k C b c x x c c g d x s a r t z s a j f a g d 7 g d 0 k d z l l x b x r s V x z z x x x f s e ",
"< g z l x z z x z x z g s x a u s 3 j h i g s g k t 3 h g 5 g h f j g z x g 2 f z k j k z l x k g q ",
"< f g k x k k k l k k a s l p y g 3 0 l g g z D g < e g j q t k g s g b j w 3 h g g h j k k l d h y ",
": g l k k k h k l j h u u j u e g p & e T c.l.k 2 < s f g d 5 i z ) 6.x i > u f f f f g g h k g g q ",
"  i k h k k h g g g g t - < : w a s w + < u 0 & - p s s d g e & 8 l k 8 = 6 a p s s f f g g f f p   ",
"  0 l g z k g g s g s p < - ; e a u p t ; @ $ 5 s p s s s s d w O . X # 5 i i p a s a s s g h h y   ",
"  2 k j k j g f s d d a i i u y u i u p a a a s a a a s s a a a u 8 6 e y y u u i p p p p h p j r   ",
"    f l g z f f s s d i y e e r i u u y y i i i a a a a a i p i i u e e w r y y y i u u d h h l     ",
"    9 l g k g f s s a y g h r y i u y y y u i p i p p p p a a i i y e e u r r e y r u u d s h p     ",
"    2 k h g k s s i y l S D g y u r y y u u p u p a p u a i p p i e e a k f r r r r u p k d ^ 9     ",
"      0 x a k f a i g f j u i t t y y p i y u y y u u u p p i u y a s f x u 8 w q y r g u z g       ",
"      - g b i x i t l 9 9 g , g f r e e u i i u u u p u p u u r u b b t , 8 j y r w d g s r.0       ",
"        > z j s k e > g i * 0 s 9 e f z f p r r u y e p p a i r e e s r 9 h g 8 0 p j 0 9.d         ",
"          9 b s g k 9 < j s 1 & 7 e s x x L b s e u l C ^ { n e 6 : u u s g 8 > r j q ^ x           ",
"          & u V u k z 8 : p 8 8 9 0 s d d s v t 8 u b k h h y 7 8 ; > p a 5 = q z w l y.<           ",
"            $ f { i g x 0 - 8 9 8 y k j g s 3 7 9 < 8 l l l g 8 5 5 = > , > i k w k y.7             ",
"              = j $.a f x a 6 8 9 3 8 y 0 g i 6 8 9 a t 8 8 w 0 1 1 5 > 5 s g 7 z p.2               ",
"                = a :.f y z j r 3 6 1 ; = 4 i 3 6 5 u s j l x i 1 1 2 u k i 9 +.) :                 ",
"                  : u :.! r s k k y 7 7 7 ; X 5 7 3 1 u 9 > % * 7 u k f 7 g r.h +                   ",
"                      2 T r.x r i l k g u w 9 6 5 5 , : 1 8 p h h s w i o.y.0                       ",
"                        = 0 :.a.b u r i f g f j g g h j l f d 0 y g 7.g.p :                         ",
"                            - e L g.%.x g p i i y i i i s g k o.g.p.k 3                             ",
"                                  1 e z q.8.p.o.S ! ' o.O.' S i 5                                   ",
"                                        # - 9 8 7 0 7 2 : @                                         "
};
